<?xml version="1.0" encoding="UTF-8" standalone="no"?>
<svg
   width="192"
   height="202.50002"
   viewBox="0 0 192 202.50002"
   xml:space="preserve"
   version="1.1"
   id="svg50"
   xmlns:xlink="http://www.w3.org/1999/xlink"
   xmlns="http://www.w3.org/2000/svg">
   <defs
   id="defs286" />
    <linearGradient
   id="linearGradient1391">
        <stop
   style="stop-color:#e9d593;stop-opacity:1;"
   offset="0"
   id="stop1387" />
        <stop
   style="stop-color:#b9ab10;stop-opacity:1;"
   offset="1"
   id="stop1389" />
    </linearGradient>
    <linearGradient
   id="linearGradient1385">
        <stop
   style="stop-color:#e9d593;stop-opacity:1;"
   offset="0"
   id="stop1381" />
        <stop
   style="stop-color:#b9ab10;stop-opacity:1;"
   offset="1"
   id="stop1383" />
    </linearGradient>
    <linearGradient
   id="linearGradient1379">
        <stop
   style="stop-color:#e9d593;stop-opacity:1;"
   offset="0"
   id="stop1375" />
        <stop
   style="stop-color:#b9ab10;stop-opacity:1;"
   offset="1"
   id="stop1377" />
    </linearGradient>
    <linearGradient
   id="linearGradient1363">
        <stop
   style="stop-color:#e9d593;stop-opacity:1;"
   offset="0"
   id="stop1361" />
        <stop
   style="stop-color:#b9ab10;stop-opacity:1;"
   offset="1"
   id="stop1359" />
    </linearGradient>
    <linearGradient
   id="linearGradient1088">
    <stop
   style="stop-color:#26338b;stop-opacity:1;"
   offset="0"
   id="stop1084" />
        <stop
   style="stop-color:#107de6;stop-opacity:1;"
   offset="1"
   id="stop1086" />
    </linearGradient>
    <linearGradient
   xlink:href="#linearGradient1088"
   id="linearGradient1090"
   x1="395.02112"
   y1="532.90918"
   x2="395.09781"
   y2="487.67712"
   gradientUnits="userSpaceOnUse"
   gradientTransform="matrix(1.1,0,0,1.1,-39.638779,-47.262164)" />
    <radialGradient
   xlink:href="#linearGradient1363"
   id="radialGradient1349"
   cx="393.75772"
   cy="473.98447"
   fx="393.75772"
   fy="473.98447"
   r="3.4996512"
   gradientTransform="matrix(1.1592997,5.7937931e-6,-3.1107723e-6,0.62244498,-62.726954,178.96117)"
   gradientUnits="userSpaceOnUse" />
    <radialGradient
   xlink:href="#linearGradient1379"
   id="radialGradient1351"
   cx="393.71497"
   cy="473.71396"
   fx="393.71497"
   fy="473.71396"
   r="3.4996512"
   gradientTransform="matrix(1,0,0,0.9523839,0,22.556412)"
   gradientUnits="userSpaceOnUse" />
    <radialGradient
   xlink:href="#linearGradient1385"
   id="radialGradient1355"
   cx="393.71497"
   cy="473.71396"
   fx="393.71497"
   fy="473.71396"
   r="3.4996512"
   gradientTransform="matrix(1,0,0,0.9523839,0,22.556412)"
   gradientUnits="userSpaceOnUse" />
    <radialGradient
   xlink:href="#linearGradient1391"
   id="radialGradient1351-4"
   cx="393.71497"
   cy="473.71396"
   fx="393.71497"
   fy="473.71396"
   r="3.4996512"
   gradientTransform="matrix(1,0,0,0.9523839,0,22.556412)"
   gradientUnits="userSpaceOnUse" />
    <radialGradient
   xlink:href="#linearGradient1391"
   id="radialGradient1355-5"
   cx="393.71497"
   cy="473.71396"
   fx="393.71497"
   fy="473.71396"
   r="3.4996512"
   gradientTransform="matrix(1,0,0,0.9523839,0,22.556412)"
   gradientUnits="userSpaceOnUse" />
    
    <g
   transform="matrix(1.3286288,0,0,1.3405077,-425.12991,-601.92678)"
   id="g30">
        <path
   d="m 396.95898,449.0293 c -19.38684,-0.0566 -39.74375,6.96357 -57.46093,23.91015 26.2371,-23.11185 82.83042,-29.42783 113.09961,17.71094 l 11.88867,-4.9043 C 451.55748,464.31432 425.29359,449.11208 396.95898,449.0293 Z m 17.11941,34.93714 c -5.81453,-0.1765 -12.11069,4.20339 -14.8418,4.76563 -11.14298,2.54969 -12.12979,9.35456 -16.54882,14.7539 -2.962,3.67688 3.62403,7.43213 7.97265,3.23047 3.68795,-3.4268 7.74368,-7.53576 12.38672,-8.07617 1.68039,-0.34948 8.31417,-1.10279 9.16602,-0.45898 l 11.59741,31.0455 31.4104,-10.40488 -10.28906,-33.93945 c -16.06713,5.32379 -24.29861,-0.91844 -30.85352,-0.91602 z m -47.63477,36.77735 c -2.29493,0.16728 -4.44617,2.07366 -5.28515,4.68164 -1.04284,3.24481 0.2741,6.46999 2.94336,7.20507 2.66961,0.7348 5.68072,-1.30008 6.72461,-4.54492 1.0442,-3.24572 -0.27494,-6.47214 -2.94532,-7.20703 -0.46059,-0.12595 -0.94506,-0.17137 -1.4375,-0.13476 z m 10.24415,2.4375 c -1.80136,-0.0638 -3.67496,0.89138 -4.36329,2.99414 l -2.82031,10.52539 c -1.47054,6.05109 6.57977,7.84858 8.1543,2.16601 l 2.95898,-10.66797 c 0.58495,-3.17019 -1.61365,-4.93566 -3.92968,-5.01757 z m 9.89843,1.75 c -1.90626,-0.0489 -3.82291,0.83982 -4.46679,2.72461 l -3.73633,11.87304 c -1.92646,6.97541 6.67969,8.93636 8.83008,2.89063 l 3.68164,-11.43946 c 1.2451,-3.90169 -1.52252,-5.97716 -4.3086,-6.04882 z m 8.32813,4.63086 c -1.44529,0.009 -2.76459,0.70021 -3.26953,2.20117 l -3.92774,11.43945 c -1.58226,5.12679 7.32974,8.74432 9.16602,2.69922 l 2.91015,-9.80273 c 1.10103,-4.08259 -2.11972,-6.55405 -4.8789,-6.53711 z"
   fill="#26338b"
   id="path24" />
        <path
   d="m 319.97644,521.35244 c 5.17643,88.69727 102.80335,95.30563 138.69336,55.16992 -60.5889,45.42381 -122.89496,-3.77216 -124.18359,-51.46093 z"
   fill="#107de6"
   id="path26" />
        
    </g>
    <g
   transform="matrix(1.3286288,0,0,1.3405077,-425.12991,-601.92678)"
   id="g42">
    <path
   d="m 395.8602,477.04697 -2.15626,-1.55607 -2.16955,1.53749 0.81359,-2.53158 -2.13266,-1.58825 2.65908,-0.009 0.85149,-2.51908 0.82982,2.5263 2.65891,0.0314 -2.14623,1.56987 z"
   transform="matrix(1.771561,0,0,1.771561,-302.40884,-364.7427)"
   fill="url(#radialGradient1349)"
   id="path32"
   style="fill:url(#radialGradient1349)" />
    <path
   d="m 395.8602,477.04697 -2.15626,-1.55607 -2.16955,1.53749 0.81359,-2.53158 -2.13266,-1.58825 2.65908,-0.009 0.85149,-2.51908 0.82982,2.5263 2.65891,0.0314 -2.14623,1.56987 z"
   transform="matrix(1.0217682,0.27378196,-0.27378196,1.0217682,132.3613,-115.11418)"
   fill="url(#radialGradient1351)"
   id="path34"
   style="fill:url(#radialGradient1351)" />
    <path
   d="m 395.8602,477.04697 -2.15626,-1.55607 -2.16955,1.53749 0.81359,-2.53158 -2.13266,-1.58825 2.65908,-0.009 0.85149,-2.51908 0.82982,2.5263 2.65891,0.0314 -2.14623,1.56987 z"
   transform="matrix(1.0217682,-0.27378197,0.27378197,1.0217682,-146.32683,100.41138)"
   fill="url(#radialGradient1351-4)"
   id="path36"
   style="fill:url(#radialGradient1351-4)" />
    <path
   d="m 395.8602,477.04697 -2.15626,-1.55607 -2.16955,1.53749 0.81359,-2.53158 -2.13266,-1.58825 2.65908,-0.009 0.85149,-2.51908 0.82982,2.5263 2.65891,0.0314 -2.14623,1.56987 z"
   transform="matrix(0.54042004,0.54042004,-0.54042004,0.54042004,454.31441,10.579151)"
   fill="url(#radialGradient1355)"
   id="path38"
   style="fill:url(#radialGradient1355)" />
    <path
   d="m 395.8602,477.04697 -2.15626,-1.55607 -2.16955,1.53749 0.81359,-2.53158 -2.13266,-1.58825 2.65908,-0.009 0.85149,-2.51908 0.82982,2.5263 2.65891,0.0314 -2.14623,1.56987 z"
   transform="matrix(0.54042004,0.54042004,-0.54042004,0.54042004,422.52689,11.003368)"
   fill="url(#radialGradient1355-5)"
   id="path40"
   style="fill:url(#radialGradient1355-5)" />
    </g>
    <g
   transform="matrix(1.3286288,0,0,1.3405077,-212.56964,163.57334)"
   id="g48"><text
   xml:space="preserve"
   id="text2638-3"
   style="font-style:normal;font-variant:normal;font-weight:bold;font-stretch:normal;font-size:24.9663px;font-family:Corbel;-inkscape-font-specification:'Corbel, Bold';font-variant-ligatures:normal;font-variant-caps:normal;font-variant-numeric:normal;font-variant-east-asian:normal;text-align:center;white-space:pre;shape-inside:url(#rect2640-3);display:inline;fill:#000000;fill-opacity:1;stroke:none;stroke-width:0;stroke-linecap:square;stroke-miterlimit:3;stroke-dasharray:none;paint-order:markers stroke fill"
   x="166.09683"
   y="0"
   transform="translate(192.0888,6.9710294)"><tspan
     x="0"
     y="0"
     id="tspan1397">COACH</tspan></text><text
   xml:space="preserve"
   id="text2638"
   style="font-style:normal;font-variant:normal;font-weight:bold;font-stretch:normal;font-size:24.9663px;font-family:Corbel;-inkscape-font-specification:'Corbel, Bold';font-variant-ligatures:normal;font-variant-caps:normal;font-variant-numeric:normal;font-variant-east-asian:normal;text-align:center;white-space:pre;shape-inside:url(#rect2640);display:inline;opacity:1;fill:#000000;fill-opacity:1;stroke:none;stroke-width:0;stroke-linecap:square;stroke-miterlimit:3;stroke-dasharray:none;paint-order:markers stroke fill"
   x="166.09683"
   y="0"
   transform="translate(235.05956,-104.68696)"><tspan
     x="-36.522965"
     y="0"
     id="tspan1399">DILDO</tspan></text>
    </g>
<path
   d="m 55.846326,96.715674 44.799824,14.214646 c -1.710741,26.8545 39.82317,28.9291 36.74914,-2.83337 21.3256,-23.969107 -15.20421,-46.617059 -28.02578,-23.407563 L 64.336413,70.310946 c -0.440284,-2.083815 -3.444259,-6.974329 -9.131423,-6.030927 -6.642986,1.289674 -18.479445,2.940454 -21.114448,11.023377 -2.720133,8.939478 6.358206,16.357833 10.464171,20.55513 5.475978,5.335224 9.817732,2.64216 11.291613,0.857148 z"
   style="fill:#107de6;stroke-width:1.33455"
   id="path723" /></svg>
