<?xml version="1.0" encoding="UTF-8" standalone="no"?>
<svg
   width="250"
   height="250"
   viewBox="0 0 250 250"
   version="1.1"
   id="svg16"
   xmlns:xlink="http://www.w3.org/1999/xlink"
   xmlns="http://www.w3.org/2000/svg">
  <defs
     id="defs6">
    <linearGradient
       id="linearGradient2052">
      <stop
         style="stop-color:#ad141e;stop-opacity:1;"
         offset="0"
         id="stop2050" />
      <stop
         style="stop-color:#e96915;stop-opacity:1;"
         offset="0.25"
         id="stop2058" />
      <stop
         style="stop-color:#f5ac38;stop-opacity:1;"
         offset="0.5"
         id="stop2056" />
      <stop
         style="stop-color:#f0e476;stop-opacity:1;"
         offset="1"
         id="stop2048" />
    </linearGradient>
    <linearGradient
       id="linearGradient1701">
      <stop
         style="stop-color:#f0e476;stop-opacity:1;"
         offset="0"
         id="stop1699" />
      <stop
         style="stop-color:#f5ac38;stop-opacity:1;"
         offset="0.24511357"
         id="stop1707" />
      <stop
         style="stop-color:#e96915;stop-opacity:1;"
         offset="0.58077204"
         id="stop1705" />
      <stop
         style="stop-color:#ad141e;stop-opacity:1;"
         offset="1"
         id="stop1697" />
    </linearGradient>
    <linearGradient
       id="linearGradient1518">
      <stop
         style="stop-color:#dd6414;stop-opacity:1;"
         offset="0.67951316"
         id="stop1514" />
      <stop
         style="stop-color:#d59545;stop-opacity:1;"
         offset="1"
         id="stop1516" />
    </linearGradient>
    <linearGradient
       xlink:href="#linearGradient1518"
       id="linearGradient1520"
       x1="210.05968"
       y1="421.21249"
       x2="211.13451"
       y2="12.323524"
       gradientUnits="userSpaceOnUse"
       gradientTransform="matrix(0.61099395,0,0,0.6098422,-3.4528793,-7.6356159)" />
    <linearGradient
       xlink:href="#linearGradient1701"
       id="linearGradient1703"
       x1="101.97002"
       y1="211.2494"
       x2="316.00961"
       y2="247.52826"
       gradientUnits="userSpaceOnUse"
       gradientTransform="matrix(0.38829855,0.26389491,-0.26389491,0.38829855,86.825662,-15.234181)" />
    <linearGradient
       xlink:href="#linearGradient2052"
       id="linearGradient2054"
       x1="65.586238"
       y1="132.16374"
       x2="175.93423"
       y2="132.16374"
       gradientUnits="userSpaceOnUse"
       gradientTransform="matrix(1.2699081,0,0,1.2699081,-25.284227,-38.888443)" />
  </defs>
  <circle
     style="display:inline;fill:#000000;fill-opacity:1;stroke:url(#linearGradient1520);stroke-width:15.2604;stroke-linecap:square;stroke-miterlimit:3;stroke-dasharray:none;stroke-opacity:1;paint-order:markers stroke fill"
     id="path1489"
     cx="125"
     cy="125"
     r="117.3698" />
  <path
     d="m 86.266859,127.53451 56.891641,18.05128 c -2.17247,34.10276 50.57177,36.73733 46.66804,-3.5981 27.08155,-30.43856 -19.30795,-59.199389 -35.59017,-29.72545 L 97.048483,94.002941 c -0.55911,-2.646272 -4.37388,-8.856768 -11.59606,-7.658738 -8.435983,1.637776 -23.467199,3.734115 -26.813408,13.998697 -3.454321,11.35232 8.074336,20.77294 13.288532,26.10311 6.95399,6.77526 12.46762,3.35531 14.339312,1.0885 z"
     style="fill:url(#linearGradient2054);fill-opacity:1;stroke-width:1.69476"
     id="path723" />
  <path
     d="m 153.59603,101.55992 c 3.37604,1.61836 2.97347,5.98515 2.31274,10.19241 -0.10589,0.71101 0.0851,1.13107 0.50857,1.71458 1.61689,2.12566 -3.97378,20.41752 -3.63904,22.55111 1.33627,10.13814 0.87373,18.88637 0.49656,20.75489 -0.95132,4.20253 -5.5663,10.28423 -9.02535,12.35288 -5.45611,2.97064 -12.18245,-1.61618 -13.78862,-1.42947 -2.69652,0.42305 -4.7178,-0.30183 -7.01577,-1.15445 -3.48972,1.12414 -4.77171,1.25852 -7.4072,0.59671 -1.06169,-0.26877 -2.53337,2.26199 -4.84377,2.16284 -2.46055,-0.26637 -5.1465,-0.9353 -6.18991,-3.23496 -0.42084,-0.66619 -4.32569,-3.7056 -5.273367,-3.59657 -1.91925,0.30137 -2.69916,-0.9222 -3.76659,-1.7985 -1.6107,-1.28068 -3.901852,-1.59388 -6.340435,-2.28787 -2.787312,-0.88858 -4.995715,-6.35664 -3.571054,-9.04989 1.473439,-2.76753 3.717655,-4.82956 6.937329,-6.13638 1.11141,-0.45214 0.83233,-1.66649 -0.53235,-1.29428 -3.995049,1.53303 -9.701065,1.06979 -11.933561,-2.66717 -0.288176,-0.61475 -1.554729,-1.08468 -2.506582,-0.91337 -5.429715,1.13838 -10.647128,-2.97176 -13.665857,-7.35031 -5.211732,-7.89677 3.992497,-29.66944 10.825534,-43.37636 1.392058,-2.950802 4.519533,-6.026947 7.213652,-4.228715 2.039337,1.203361 4.441269,2.479234 6.625848,2.18108 6.327166,-1.134729 8.616536,-3.417633 11.345443,-6.379994 1.25904,-1.361089 3.85547,-1.083316 5.74822,0.193285 l 5.67885,3.808298 c 3.38923,2.180145 9.41148,1.052782 12.66654,-1.299958 2.54963,-1.957246 9.17953,1.63953 11.45977,5.39693 1.61356,2.991209 3.33532,6.159933 4.9482,8.79782 0.74144,1.139218 2.28636,2.006786 3.65403,2.438832 4.04316,1.151659 5.52403,1.473821 9.07904,3.055292 z m -80.672528,28.13115 c -1.191581,-1.28212 -1.535481,-6.30403 -0.372401,-8.04695 L 93.988783,87.043571 c -2.856259,0.88589 -4.798695,1.062837 -6.899881,0.909423 -2.010412,-0.165891 -3.906867,-0.285194 -5.163359,-1.988946 -0.859324,-0.907731 -2.90791,0.0106 -3.815266,1.666802 -4.583426,8.938206 -11.319279,24.10389 -12.755929,33.53781 -0.494473,4.6068 1.517618,8.29248 4.310489,8.37356 z M 117.01798,87.063301 c -4.0657,0.980735 -7.06893,-1.08823 -9.41278,-3.568332 -1.75996,-1.722965 -5.49924,-2.046702 -6.91565,-0.46817 -8.554927,10.109364 -14.786202,26.328491 -23.204249,37.972431 -2.199373,3.08471 -0.469711,6.79329 1.694937,8.50444 2.445087,1.88699 5.074148,2.54049 7.871868,1.59341 -0.977042,-11.7023 13.927904,-21.89325 24.576894,-38.654623 0.73592,-1.166919 3.3193,-3.853512 4.46845,-3.342396 0.76094,0.339856 1.66393,-2.230074 0.92053,-2.036749 z m 20.69659,9.810377 c -2.08301,-1.370779 -2.49471,-6.473483 -4.24665,-8.545306 -1.26184,-1.303908 -4.36229,-3.099925 -5.93787,-3.686249 -1.30624,-0.391926 -2.9325,-0.372521 -4.3195,1.222501 L 97.192803,117.55198 c -3.99119,4.51436 -5.08652,11.74158 -3.74491,14.64735 1.25182,2.56614 10.986487,6.32079 13.508877,1.85136 11.20758,-20.85597 25.33067,-33.70688 30.7578,-37.177012 z m 12.3195,60.343762 c 1.64813,-8.58799 -1.76623,-15.48184 -0.25489,-23.31102 0.89913,-4.99297 3.31289,-11.39666 3.39006,-16.55336 -3.00857,0.83779 -5.57967,1.04518 -7.95076,0.89638 -0.82258,-0.11641 -1.31034,-0.53611 -1.67937,-1.05475 -0.27851,-0.3683 -0.19577,-1.1671 0.43457,-1.20408 10.45538,-1.07989 10.96635,-12.10873 5.80111,-12.88552 -2.02534,-0.22071 -3.55015,-0.87486 -5.23107,-1.37508 -3.58377,-0.91501 -7.83195,1.14117 -10.44835,3.37164 -6.55002,6.07653 -11.07126,13.21452 -15.82999,20.22823 -4.67556,6.76145 -4.64409,13.43197 -2.73136,14.48205 4.10348,2.14168 6.7627,2.83299 11.6449,3.46322 1.872,0.23722 -0.10489,2.3263 -4.09051,3.16036 -6.32684,0.76086 -13.21199,-4.83402 -13.19196,-2.79962 -0.0156,5.17384 3.63312,11.78203 8.34036,10.03261 2.63197,-0.97263 5.35278,-1.13292 7.6885,-2.51507 0.53986,-0.41888 3.829,-5.86876 5.75289,-8.75394 0.88961,-1.25966 1.41195,-1.46612 2.28304,-0.19706 0.96483,1.05318 1.95905,1.67105 3.47564,1.33829 2.19349,-0.22052 3.68255,1.12572 4.29135,2.70669 0.62001,1.41794 1.34087,3.17754 -0.58827,2.07289 -2.9827,-1.72059 -8.12353,-1.78753 -8.77352,-0.44571 -2.51176,5.51792 -8.00823,7.82789 -13.73026,9.13044 -4.48524,0.81884 -10.78942,-2.31001 -11.37643,-8.19991 -3.53296,-2.21219 -5.93894,-2.64953 -8.267407,-2.96482 -1.82608,-0.32683 -4.77592,-0.31765 -4.20125,0.4156 1.7668,1.78633 3.21735,2.55925 5.533947,2.72855 2.04578,0.23061 3.64285,2.47609 4.53596,4.83208 0.4412,1.22796 -0.24482,5.08183 -0.57793,7.67594 -0.0658,0.81099 2.09771,0.96662 2.23745,-0.39492 l 0.3158,-5.18773 c 0.0545,-3.21549 1.46942,-1.80447 1.79802,-0.27539 0.28979,1.21088 2.44246,6.1707 2.637,10.15529 2.42361,-1.19001 4.13202,-1.88789 7.25318,-2.60381 2.38024,-0.55627 14.10688,1.83131 21.3557,4.08405 1.20724,0.25148 3.90941,-1.72048 4.82155,-4.4915 1.71086,-5.29006 1.72754,-7.71685 1.95165,-11.49174 0.0873,-0.81062 1.71103,0.14182 1.73344,0.9909 l 0.31134,5.03375 c 0.0336,0.7729 1.09186,0.91875 1.33582,-0.0935 z m -56.322447,-8.42375 c -0.87988,-0.49184 -3.308149,-0.73718 -3.292061,-0.19719 -0.06458,1.10657 -0.47682,2.7813 -1.197654,3.73567 -0.134058,3.3418 4.709875,4.62355 7.240735,4.73296 1.80429,-0.0484 3.22484,-6.26838 1.93358,-6.66485 -1.5767,-0.39421 -3.19144,-0.80119 -4.6846,-1.60659 z m 8.084827,6.97737 c 0.0663,-1.51525 -0.0338,-2.57133 -0.76472,-2.67633 -0.77853,-0.0132 -1.367087,1.44409 -1.427537,2.63972 -0.0379,1.00988 -0.0519,2.63279 0.778327,2.73138 0.79527,0.0389 1.42356,-1.79691 1.41393,-2.69477 z"
     style="display:inline;fill:url(#linearGradient1703);fill-opacity:1;stroke:none;stroke-width:0;stroke-dasharray:none"
     id="path415" />
  <path
     id="path438-1-6"
     style="fill:#faf9f9;stroke:none;stroke-width:0;stroke-dasharray:none"
     d="m 118.79601,21.270926 c -0.64339,0.02452 -1.16814,0.305715 -1.14168,1.078715 l -0.007,11.648456 c -0.0327,1.0769 0.43539,1.52967 0.98368,1.50878 l 11.25641,0.0261 c 0.90116,0.05 3.29328,-3.7813 2.27029,-3.7957 l -9.33541,-0.11999 c -1.02302,-0.678591 -1.01621,-1.544722 0.0535,-1.937647 l 6.94868,0.09385 c 1.06638,-0.0076 2.16169,-3.0057 1.33533,-3.035371 l -8.36123,-0.03802 c -0.86432,-0.535493 -1.14135,-1.243621 -0.0142,-1.831915 l 7.51893,0.05227 c 1.06753,0.0019 1.95584,-3.685308 0.80904,-3.637694 z m -7.75535,0.389669 c -4.86933,0.397082 -13.678613,2.648748 -14.881043,3.461867 -2.98586,2.351804 -0.9698,8.448455 1.33294,7.718515 3.237133,-0.9559 7.330153,-1.45024 11.840933,-1.18564 l -0.62134,1.34365 -10.233533,2.52452 c -0.95895,0.21738 -3.01159,3.6884 -1.6454,3.4393 4.716533,-0.73303 8.348053,-0.9611 13.166743,-2.54116 2.77766,-0.81831 4.85923,-5.878731 1.64184,-7.983442 -1.7369,-1.073485 -7.52981,-0.08135 -11.685303,0.870812 -0.81205,0.160906 -0.10999,-1.551624 0.844693,-2.014869 l 8.47646,-2.231086 c 1.17601,-0.471031 3.01505,-3.438562 1.76301,-3.402467 z m -26.310913,8.695061 c -6.01177,-8.51e-4 -13.78155,5.033281 -13.81896,9.324711 -0.006,4.42534 2.23019,7.13022 6.07431,7.1055 5.74247,-0.0261 13.40364,-4.06104 13.46493,-8.99444 0.0256,-4.24725 -2.20656,-7.403752 -5.72028,-7.435771 z m -1.23435,4.544151 c 2.10101,-0.10551 2.28815,1.55401 2.40929,3.07814 0.14707,2.03033 -6.36497,5.57406 -8.20085,4.7568 -1.27044,-0.75276 -1.54599,-1.44779 -1.72499,-3.29199 -0.12451,-1.14935 2.92295,-3.89429 7.06986,-4.49781 0.15763,-0.0233 0.30663,-0.0381 0.44669,-0.0451 z m 100.562883,7.27063 c -0.43108,0.0102 -0.84122,0.077 -1.22247,0.20553 -4.18289,1.44469 -6.00438,4.4441 -4.72116,8.06779 1.90668,5.41676 8.22913,11.33158 12.91013,9.77259 4.02104,-1.36784 6.27139,-4.51074 5.15003,-7.84088 -1.78487,-5.14751 -7.94951,-10.30405 -12.11653,-10.20503 z m -120.711573,0.70687 c -1.84653,-0.024 -3.67646,0.79257 -4.50613,1.54798 l -7.40131,6.61485 c -0.61639,0.70594 0.11589,4.7328 1.22959,3.78145 l 8.69863,-7.6508 c 1.26063,-0.97087 2.92704,0.88762 1.9127,1.76419 l -7.72802,7.03066 c -1.61538,1.40381 -1.49713,2.46809 -0.53342,3.55691 l 2.58987,2.57323 c 0.64527,0.67486 1.12925,0.91216 1.80459,0.33621 l 1.50996,-1.22128 c 0.75802,-0.58794 0.55405,-1.21645 -0.0392,-1.8331 l -0.83399,-0.91001 c -0.42548,-0.40485 -0.58205,-0.60974 -0.1485,-1.04665 l 6.50318,-5.82957 c 1.64309,-1.39477 2.27975,-5.54173 0.0713,-7.56764 -0.90753,-0.8155 -2.0213,-1.13203 -3.12922,-1.14643 z m 121.878193,4.13785 c 1.41413,0.0985 4.37546,2.02091 6.06362,5.27596 1.17854,2.26058 -0.43574,3.03624 -1.92934,3.69115 -1.87,0.80438 -7.35313,-4.18603 -7.18272,-6.18835 0.2948,-1.44699 0.86106,-1.93394 2.54472,-2.70748 0.13064,-0.0618 0.3017,-0.0854 0.50372,-0.0713 z m 19.03434,11.33482 c -0.41129,-0.007 -0.77699,0.21556 -0.99794,0.7639 l -4.67007,12.81983 c -0.84828,2.12368 0.51326,4.29905 2.75856,4.45386 l 13.01824,0.0285 c 2.37085,0.0196 0.37749,-4.1778 -1.32225,-4.06657 l -6.93562,-0.0344 c -1.72856,0.0935 -3.216,-0.61671 -2.38078,-2.67541 l 2.71817,-7.68999 c 0.68298,-1.50308 -0.95446,-3.58023 -2.18831,-3.59968 z m -159.015463,2.59462 c -1.07502,-0.0179 -2.0712,0.34898 -2.73243,1.01575 -3.09147,3.10356 -8.62148,10.18121 -7.96087,11.66391 0.55967,1.1072 1.44705,3.02141 2.09447,2.24534 2.86516,-3.39689 5.7504,-6.82437 7.8088,-9.89615 0.5661,-0.76514 2.55705,1.25933 2.01963,1.89013 -2.49513,2.94888 -4.64103,5.8569 -7.00571,8.93623 -0.6323,0.98721 -0.23796,2.33522 0.47758,2.72767 l 4.78175,2.70393 2.2596,-3.2516 -2.84292,-1.80934 4.06776,-5.35437 3.7458,-0.36116 3.36208,-4.59285 -4.12597,0.35878 -1.30563,-0.78053 c 0.51519,-1.46016 -0.15082,-2.96698 -1.43749,-4.20437 -0.97706,-0.87074 -2.13142,-1.27346 -3.20645,-1.29137 z m 173.104103,20.96842 c -0.14638,0.002 -0.30707,0.0395 -0.48234,0.12117 l -10.72419,4.55009 c -1.00392,0.39105 -1.23752,0.99926 -1.00387,1.49571 l 4.37902,10.36897 c 0.30643,0.84893 4.76823,1.553023 4.38139,0.60589 l -3.54028,-8.63923 c 0.22441,-1.20694 1.02341,-1.54002 1.8034,-0.70924 l 2.63145,6.4319 c 0.4241,0.97842 3.61163,0.81372 3.31574,0.0416 l -3.23495,-7.70902 c 0.15479,-1.0049 0.69878,-1.53783 1.68103,-0.73062 l 2.89281,6.94155 c 0.41578,0.98323 4.1562,0.35846 3.66383,-0.67835 l -4.8067,-11.34077 c -0.20566,-0.43692 -0.51723,-0.75525 -0.95634,-0.74963 z m -188.726463,0.0642 c -1.28217,0.004 -1.16263,4.08621 0.53936,4.42178 2.86816,0.70921 3.95341,0.89413 5.96144,2.06714 1.81761,1.13485 0.3411,8.28595 -2.41879,8.46815 -2.29233,0.0798 -4.36548,-0.41775 -7.11263,-1.51591 -1.40514,-0.27235 -3.886,2.75853 -2.37959,3.58899 4.19167,2.128713 9.19454,3.203043 11.27068,2.016063 2.70096,-1.736933 4.06923,-4.002443 5.02885,-6.732473 0.96316,-2.85975 1.3485,-4.55878 -0.17582,-7.97037 -0.98984,-2.48892 -7.21025,-3.77103 -10.58519,-4.33031 -0.0443,-0.009 -0.087,-0.0132 -0.12831,-0.0131 z M 222.696,103.68814 c -0.39689,-0.01 -0.65743,0.11844 -0.63202,0.49659 0.27368,4.43544 0.55417,8.90581 1.18682,12.54897 0.11899,0.94432 -2.71873,0.85468 -2.76569,0.0273 -0.2322,-3.85584 -0.6885,-7.44024 -1.10485,-11.30037 -0.22447,-1.15065 -1.44018,-1.85333 -2.22871,-1.64302 l -5.32705,1.34721 0.61301,3.91212 3.30386,-0.65578 0.75677,6.68138 -2.46037,2.84885 0.74132,5.64306 2.73598,-3.10784 1.48264,-0.33739 c 0.63578,1.41183 2.1591,2.0418 3.94421,2.04813 2.61595,-0.09 4.44922,-2.02369 4.48475,-3.90144 0.0925,-4.37958 -0.7959,-13.31806 -2.29762,-13.93419 -0.73088,-0.25894 -1.77156,-0.65739 -2.43305,-0.6736 z m -195.796323,1.52061 c -3.25344,0.0314 -5.19684,3.66623 -5.359119,5.45416 l -0.988426,9.87594 c 0.02242,0.9369 3.282215,3.41166 3.460685,1.95785 l 1.24622,-11.51778 c 0.27363,-1.56745 2.75747,-1.32204 2.60175,0.009 l -0.94804,10.40342 c -0.2427,2.12631 0.56283,2.83132 2.00893,2.9831 l 3.64839,0.14731 c 0.93167,0.0617 1.44863,-0.0897 1.55748,-0.9706 l 0.28869,-1.91983 c 0.16173,-0.94558 -0.41362,-1.27074 -1.26761,-1.32464 l -1.23078,-0.1081 c -0.5872,-0.0111 -0.84068,-0.0562 -0.81617,-0.67123 l 0.85656,-8.6915 c 0.26926,-2.13837 -2.06162,-5.62579 -5.05856,-5.62761 z m 167.484803,79.49821 c -0.12719,-0.006 -0.24126,0.0374 -0.33621,0.14494 l -8.53587,8.87921 c -0.42769,0.48125 -0.588,1.05449 -0.0119,1.57055 l 8.40043,8.07017 c 0.75443,0.76917 1.40562,0.74392 1.77014,0.33383 l 7.81118,-8.10462 c 0.65997,-0.61566 -0.44801,-4.99438 -1.16663,-4.26615 l -6.5507,6.65287 c -1.19791,0.26842 -1.81727,-0.33538 -1.36027,-1.37929 l 4.87798,-4.94926 c 0.73275,-0.77478 -0.67291,-3.64083 -1.26642,-3.06507 l -5.81532,6.00659 c -0.98478,0.25298 -1.68753,-0.0375 -1.33177,-1.2581 l 5.24389,-5.39002 c 0.64788,-0.67288 -0.83826,-3.20047 -1.72856,-3.24565 z M 54.480577,185.7738 c -1.35256,-0.0505 -3.83094,0.72654 -3.01399,1.59194 l 8.07255,8.30777 c 1.03224,1.21089 -0.74094,2.96781 -1.66679,1.99823 l -7.40607,-7.36924 c -1.48227,-1.54369 -2.53866,-1.37297 -3.57829,-0.3564 l -2.44136,2.7146 c -0.64199,0.67799 -0.85589,1.17294 -0.24711,1.81885 l 1.29493,1.447 c 0.62485,0.72791 1.24192,0.49245 1.82835,-0.13068 l 0.86844,-0.87794 c 0.38322,-0.44504 0.58043,-0.61092 1.03832,-0.19958 l 6.14559,6.20498 c 1.47462,1.57183 5.64674,2.00218 7.56051,-0.30413 2.05185,-2.52505 0.49254,-6.33981 -0.78052,-7.60566 l -6.97245,-7.06392 c -0.13793,-0.10886 -0.38998,-0.16417 -0.70211,-0.17582 z m 14.39158,12.3577 c -0.28481,0.004 -0.53806,0.13061 -0.71875,0.42174 l -6.60891,9.14651 c -0.88083,1.12637 -0.96521,2.56503 0.002,3.26228 l 8.06185,4.73067 c 1.78517,0.75037 3.25835,0.79732 4.88748,-1.16781 0.61034,-0.68827 -4.58678,-3.00399 -6.4711,-4.40872 -0.97768,-0.80645 -1.97014,-1.3232 -1.25811,-2.38909 l 4.202,-5.9365 c 0.96003,-1.36879 -0.86268,-3.6751 -2.09684,-3.65908 z m 111.165883,1.25217 c -0.49674,0.017 -0.9711,0.13122 -1.38997,0.34333 -3.91244,1.97033 -11.392,6.94307 -11.23266,8.55844 0.18196,1.2272 0.42038,3.32415 1.27949,2.79183 3.79016,-2.32005 7.60849,-4.66255 10.53054,-6.92849 0.7785,-0.54758 2.02881,2.00035 1.31988,2.42949 -3.29773,2.01159 -6.251,4.095 -9.46608,6.27152 -0.91135,0.73744 -0.96157,2.14148 -0.4063,2.73956 l 3.68521,4.07369 3.16843,-2.37365 -2.12654,-2.61244 5.54802,-3.79926 3.66977,0.83873 4.638,-3.29911 -4.02855,-0.9611 -0.99199,-1.15119 c 0.94938,-1.22319 0.79162,-2.86316 -0.0392,-4.44316 -0.97892,-1.70163 -2.66783,-2.52902 -4.15804,-2.47819 z m -96.505813,8.24005 c -0.34516,0.0215 -0.64376,0.20911 -0.81973,0.65935 l -4.61543,10.69567 c -0.45617,0.97606 -0.20528,1.57712 0.30651,1.77489 l 10.32739,4.47762 c 0.80783,0.4025 4.5216,-2.1683 3.5878,-2.5863 l -8.52637,-3.8052 c -0.67103,-1.02799 -0.32286,-1.82063 0.81498,-1.75826 l 6.34518,2.8346 c 0.98237,0.41492 3.17429,-1.90419 2.4271,-2.25842 l -7.66386,-3.34307 c -0.58191,-0.83377 -0.55625,-1.59383 0.71162,-1.68816 l 6.88572,3.02349 c 0.97965,0.42413 3.25325,-2.6111 2.18119,-3.02111 l -11.30631,-4.88392 c -0.22522,-0.087 -0.44869,-0.13407 -0.65579,-0.12118 z m 78.241313,1.31513 c -1.16387,0.002 -3.31762,1.99383 -2.69204,3.30743 1.14161,2.72508 1.64096,3.70591 1.89726,6.01728 0.17333,2.13578 -6.44757,5.21668 -8.24006,3.11021 -1.4314,-1.79226 -2.26861,-3.75252 -3.02586,-6.61247 -0.61956,-1.29025 -4.53144,-1.47396 -4.29942,0.23047 0.79176,4.63408 2.9126,9.29067 5.1037,10.24898 3.0052,1.13178 5.64042,0.87843 8.404,0.0202 2.86981,-0.93278 4.46394,-1.63617 6.2929,-4.89462 1.40722,-2.27908 -1.27391,-8.037 -2.83816,-11.0794 -0.11684,-0.24412 -0.33374,-0.34867 -0.60232,-0.34809 z m -51.74982,6.27745 c -0.70277,0.007 -1.46669,0.34726 -2.15148,1.08823 l -9.586083,9.22372 c -1.13707,1.15632 1.977293,4.39987 3.126853,3.22308 l 7.2742,-6.68257 1.97447,1.21653 c 1.25217,1.09963 1.09557,2.81926 -0.2471,2.69798 l -4.36713,-0.36235 -3.13042,2.66234 c -0.77319,0.96734 16.98275,3.66182 16.05599,1.95071 l -6.83701,-13.52908 c -0.40565,-0.95267 -1.20872,-1.49692 -2.11229,-1.48859 z m 30.95367,0.38373 c -5.01775,0.0143 -13.00883,1.1511 -14.21457,1.78202 -3.23101,2.00173 -1.91156,8.2863 0.45857,7.8195 3.32397,-0.58643 7.44658,-0.61847 11.89913,0.15088 l -0.76864,1.26523 -10.45333,1.36027 c -0.97728,0.10835 -3.40633,3.32661 -2.0208,3.23259 4.769,-0.19888 8.40308,-0.0176 13.3687,-1.04664 2.85196,-0.5013 5.49003,-5.29679 2.52928,-7.74941 -1.60541,-1.2617 -7.47413,-0.92631 -11.71024,-0.44669 -0.82498,0.0687 0.065,-1.55243 1.06565,-1.90557 l 8.67249,-1.26642 c 1.22146,-0.33602 3.38303,-3.07915 2.13485,-3.18387 -0.30519,-0.009 -0.62658,-0.0128 -0.96109,-0.0119 z" />
</svg>
