<svg width="250" height="230" viewBox="0 0 250 230" xml:space="preserve" xmlns:xlink="http://www.w3.org/1999/xlink" xmlns="http://www.w3.org/2000/svg">
   <defs
     id="defs2"><linearGradient
       id="linearGradient1192"><stop
         style="stop-color:#53b4f4;stop-opacity:1;"
         offset="0"
         id="stop1188" /><stop
         style="stop-color:#11469a;stop-opacity:1;"
         offset="1"
         id="stop1190" /></linearGradient><linearGradient
       xlink:href="#linearGradient1192"
       id="linearGradient1194"
       x1="243.94698"
       y1="370.9321"
       x2="543.21844"
       y2="613.23206"
       gradientUnits="userSpaceOnUse"
       gradientTransform="matrix(0.6006094,0,0,0.59891925,-100.79551,-166.65115)" /></defs><path
     d="M 249.94054,20.479381 250,210.28033 c -0.0273,11.08876 -8.54811,19.75274 -21.06028,19.71867 L 36.013056,230 C 29.713733,229.9705 19.35259,223.00699 19.259117,211.69881 l 0.0161,-29.45499 -14.9957929,-0.1041 c -2.1272805,-0.002 -4.2920329,-1.1328 -4.25933572,-4.483 L 0.01468288,128.99577 C 0.01047858,126.13571 1.4562115,124.585 4.2801028,124.56269 l 15.1076992,-0.08 -0.0098,-19.24589 -16.5895347,-0.13915 C 1.0662378,105.03936 0.00856469,102.76305 0,100.09382 L 0.00300305,52.13527 C 0.02222255,50.003285 2.0721565,47.937283 3.7945841,47.791859 L 19.348992,47.475223 19.173608,14.290227 C 19.24827,7.5157915 27.034835,-0.00894585 35.110833,7.9829988e-6 L 233.99949,0.01575956 c 9.16752,0.0467756 15.97133,10.80599444 15.94128,20.46371144 z M 112.16528,72.508231 72.550499,32.647504 C 59.321728,20.152509 39.018542,38.759959 52.311649,53.454743 L 91.78445,92.826507 C 84.952788,106.83246 83.835469,119.376 91.84391,137.07638 l -39.202563,39.08707 c -13.605118,13.07378 5.319153,32.91943 18.85615,21.57859 L 112.3396,157.598 c 12.29384,6.28921 27.82012,8.49474 44.60765,-0.0163 l 39.543,39.62824 c 13.79062,12.81243 33.54064,-7.16278 21.1843,-19.96578 l -40.25024,-39.73853 c 6.55548,-13.64233 8.41211,-28.75387 -0.15904,-44.736839 l 40.74055,-40.84613 C 229.51459,40.744976 211.55798,19.324563 197.01602,31.9911 l -40.3713,40.397533 c -14.55645,-7.499625 -29.39738,-7.056329 -44.47944,0.119628 z m 99.37752,17.809625 0.0263,48.592024 c 0.018,12.27594 19.17293,12.48656 19.07932,-0.13014 l -0.20606,-48.549884 c -0.13945,-11.834266 -18.90799,-11.851156 -18.89959,0.088 z"
     style="fill:url(#linearGradient1194);fill-opacity:1;stroke:none;stroke-width:0;stroke-dasharray:none"
     id="path427" /><ellipse
     style="fill:#4e4e4e;fill-opacity:1;stroke:none;stroke-width:0;stroke-linecap:square;stroke-miterlimit:3;paint-order:markers stroke fill"
     id="path609"
     cx="134.90826"
     cy="114.87524"
     rx="19.462561"
     ry="19.731447" />
     </svg>