<svg width="192.00052" height="144" viewBox="0 0 120.00032 89.999997"
  
   xml:space="preserve"
   xmlns="http://www.w3.org/2000/svg">
<filter
       style="color-interpolation-filters:sRGB"
       id="filter1905"
       x="-0.0051629078"
       y="-0.095407926"
       width="1.0103248"
       height="1.169403"><feGaussianBlur
         stdDeviation="0.084298622"
         id="feGaussianBlur1907" /></filter><filter
       style="color-interpolation-filters:sRGB"
       id="filter2691"
       x="-0.016898371"
       y="-0.26133767"
       width="1.0337967"
       height="1.5226754"><feGaussianBlur
         stdDeviation="0.38542414"
         id="feGaussianBlur2693" /></filter>
    <g
     id="g1954"
     transform="matrix(2.0906592,0,0,2.7713185,84.571205,29.929727)"><path
       d="M -10.892033,20.83329 C -0.02378663,19.116725 15.120323,10.299342 9.3633138,-5.3806837 1.4903006,-3.9394684 -5.7423272,-5.7534593 -11.566729,-9.9214675 c -6.204291,4.3073022 -13.293615,5.1318157 -20.998877,2.92575 -6.961139,17.5074755 11.515043,26.3898985 21.673573,27.8290075 z"
       style="display:inline;fill:#f8fcfd;fill-opacity:1;stroke:none;stroke-width:0;stroke-dasharray:none;stroke-opacity:1"
       id="path483-2" /><path
       id="path1092-7"
       style="display:inline;mix-blend-mode:normal;fill:#97999a;fill-opacity:1;stroke-width:0.264583;filter:url(#filter2691)"
       d="m -31.793636,11.982424 c -1.673789,0.0025 -3.43602,0.138669 -4.674133,0.342614 -0.588593,0.129033 -2.599783,0.893222 -3.744991,1.472262 -0.234026,0.09029 0.181599,0.281425 0.495577,0.270784 0.763421,-0.03047 0.331992,0.561831 0.938961,0.517281 0.374946,-0.09633 0.941379,-0.464809 1.309481,-0.523999 1.319868,0.05689 1.310895,0.345532 1.796272,0.251148 0.143341,-0.05643 0.319449,-0.248475 0.418579,-0.550871 0.0774,-0.226204 0.273603,-0.254217 0.280603,0.04341 -0.0046,0.168492 0.121532,0.629349 0.235128,0.65319 0.243268,0.06522 0.894718,-0.04936 1.442289,-0.253731 0.426425,-0.172089 0.757636,-0.489322 1.152901,-0.981335 0.191907,0.388793 0.305921,0.535284 0.503329,0.692464 -0.590639,0.147041 -0.643748,0.424422 -0.823206,0.608231 -0.181138,0.2377 0.514515,-0.28111 0.600997,0.255799 0.04264,0.235936 0.259794,-0.163515 0.584461,-0.345716 1.100448,-0.645449 2.258282,-0.628056 4.329451,0.128158 -1.549738,-1.158773 -1.900891,-1.651762 -2.675806,-2.493905 -0.666716,-0.06029 -1.40908,-0.08693 -2.169893,-0.08578 z m 38.5392486,0.721919 c -0.8602381,-0.002 -1.7194121,0.03152 -2.503723,0.10387 -1.0211488,0.922599 -1.3853004,1.164517 -2.9347045,2.413806 2.0303986,-0.756214 3.2460145,-0.763788 4.3248004,-0.118339 0.3182758,0.182201 0.5312907,0.581651 0.5730917,0.345715 0.08478,-0.536908 0.7666845,-0.0181 0.5891113,-0.255798 -0.1759253,-0.18381 -0.228174,-0.461191 -0.8071859,-0.608232 0.1935219,-0.157179 0.3053807,-0.30367 0.4935099,-0.692464 0.3874849,0.492014 0.712133,0.809247 1.1301636,0.981336 0.5367931,0.204366 1.1753881,0.318951 1.4138671,0.253731 0.11136,-0.02384 0.234977,-0.484698 0.230477,-0.65319 0.0069,-0.297626 0.199555,-0.269612 0.275435,-0.04341 0.09718,0.302395 0.269792,0.49444 0.410311,0.55087 0.4758238,0.09438 0.4672448,-0.194257 1.7611328,-0.251147 0.360855,0.05919 0.91556,0.427669 1.283126,0.523999 0.595021,0.04455 0.172479,-0.547751 0.920874,-0.517281 0.307795,0.01064 0.715177,-0.180495 0.485758,-0.270785 -1.122666,-0.579039 -3.094604,-1.343228 -3.67161,-1.472261 C 9.6166452,12.80936 8.1793432,12.707607 6.7456126,12.704343 Z"
       transform="matrix(1.014282,0,0,1.014282,1.342848,-0.36288275)" /><path
       id="path1092"
       style="fill:#f8fcfd;fill-opacity:1;stroke-width:0.264583"
       d="m -30.666861,11.401888 c -1.673789,0.0025 -3.43602,0.138669 -4.674133,0.342614 -0.588593,0.129033 -2.599783,0.893222 -3.744991,1.472262 -0.234026,0.09029 0.181599,0.281425 0.495577,0.270784 0.763421,-0.03047 0.331992,0.561831 0.938961,0.517281 0.374946,-0.09633 0.941379,-0.464809 1.309481,-0.523999 1.319868,0.05689 1.310895,0.345532 1.796272,0.251148 0.143341,-0.05643 0.319449,-0.248475 0.418579,-0.550871 0.0774,-0.226204 0.273603,-0.254217 0.280603,0.04341 -0.0046,0.168492 0.121532,0.629349 0.235128,0.65319 0.243268,0.06522 0.894718,-0.04936 1.442289,-0.253731 0.426425,-0.172089 0.757636,-0.489322 1.152901,-0.981335 0.191907,0.388793 0.305921,0.535284 0.503329,0.692464 -0.590639,0.147041 -0.643748,0.424422 -0.823206,0.608231 -0.181138,0.2377 0.514515,-0.28111 0.600997,0.255799 0.04264,0.235936 0.259794,-0.163515 0.584461,-0.345716 1.100448,-0.645449 2.258282,-0.628056 4.329451,0.128158 -1.549738,-1.158773 -1.900891,-1.651762 -2.675806,-2.493905 -0.666716,-0.06029 -1.40908,-0.08693 -2.169893,-0.08578 z m 38.5392484,0.721919 c -0.8602381,-0.002 -1.7194121,0.03152 -2.503723,0.10387 -1.0211488,0.922599 -1.3853004,1.164517 -2.9347045,2.413806 2.0303986,-0.756214 3.2460145,-0.763788 4.3248004,-0.118339 0.3182758,0.182201 0.5312907,0.581651 0.5730917,0.345715 0.08478,-0.536908 0.7666845,-0.0181 0.5891113,-0.255798 -0.1759253,-0.18381 -0.228174,-0.461191 -0.8071859,-0.608232 0.1935219,-0.157179 0.3053807,-0.30367 0.4935099,-0.692464 0.3874849,0.492014 0.712133,0.809247 1.1301636,0.981336 0.5367927,0.204366 1.1753878,0.318951 1.4138671,0.253731 0.11136,-0.02384 0.234977,-0.484698 0.230477,-0.65319 0.0069,-0.297626 0.199555,-0.269612 0.275435,-0.04341 0.09718,0.302395 0.269792,0.49444 0.410311,0.55087 0.475824,0.09438 0.467245,-0.194257 1.761133,-0.251147 0.360855,0.05919 0.91556,0.427669 1.283126,0.523999 0.595021,0.04455 0.172479,-0.547751 0.920874,-0.517281 0.307795,0.01064 0.715177,-0.180495 0.485758,-0.270785 -1.122666,-0.579039 -3.094604,-1.343228 -3.67161,-1.472261 -1.103402,-0.185403 -2.5407044,-0.287156 -3.9744346,-0.29042 z" /><path
       d="M -11.065196,19.033686 C -3.114636,17.638954 11.507579,10.69222 7.3999604,-3.5395606 -0.11099214,-2.581093 -5.5936565,-3.691076 -11.418059,-7.8590845 -17.62235,-3.5517824 -23.17321,-3.1738314 -30.55664,-4.4144001 -34.621289,11.282768 -18.888768,17.648611 -11.065196,19.033686 Z"
       style="fill:none;stroke:#6f687a;stroke-width:0.264583;stroke-dasharray:none;stroke-opacity:1"
       id="path483" /><path
       d="m -11.491871,2.8701508 c 1.050104,-0.2776122 3.0026494,-1.6603135 2.4601179,-4.4930552 -0.9920419,0.1907766 -1.7161879,-0.030158 -2.4854709,-0.8597724 -0.819457,0.8573398 -1.552611,0.9325684 -2.52781,0.6856415 -0.536856,3.1244171 1.519831,4.3914957 2.553163,4.6671861 z"
       style="fill:none;stroke:#5f3c99;stroke-width:0.132292;stroke-dasharray:none;stroke-opacity:1"
       id="path483-3" /><path
       id="path389"
       style="fill:#590999;fill-opacity:1;stroke-width:0.264583"
       d="m -11.380831,-10.799815 c -4.807712,3.1612858 -10.897431,6.042536 -17.890219,4.3897569 0.214926,-1.3580219 -0.858418,-1.8275216 -1.831494,-1.9594602 -1.309191,-0.069212 -1.972975,1.1112848 -2.301059,1.9755614 -3.948317,10.9565381 1.870199,16.8547519 3.935887,18.8954219 4.683131,4.847265 11.302114,7.155968 18.411032,9.174236 C -2.8546772,19.016 1.6360725,17.309507 6.483123,13.125018 8.5235588,11.321598 13.421711,4.6667567 10.009662,-5.5230315 9.7065209,-6.3484028 9.3241518,-7.282191 8.0039229,-7.2043811 c -1.176839,0.097458 -1.7518992,0.8044746 -1.6258594,1.8218686 -8.794457,0.9255093 -13.5319789,-2.288059 -17.7588945,-5.4173025 z m -0.05253,1.4534941 c 6.2635715,4.8091876 13.0338916,5.8922401 20.28865,4.5912651 C 11.92063,3.6894876 7.8820398,10.156153 6.0359796,11.940853 1.8564045,16.073817 -5.056675,18.836614 -11.001592,20.484704 -16.634144,19.04657 -25.104005,16.14545 -29.543308,10.708871 -30.696741,9.1105684 -35.867261,4.5858031 -32.18581,-6.2275785 c 5.717685,2.3174645 14.017262,1.7128775 20.752449,-3.1187424 z m -14.473864,8.2667167 0.0051,0.10831675 0.790508,0.005367 -0.0019,6.71856745 -1.176153,-0.020004 v 0.1005102 l 1.176153,0.040497 -6.4e-4,3.3992927 -1.080063,0.013174 -0.0058,0.118075 3.818655,-0.030251 0.01602,-0.1068531 -1.201778,0.00585 0.02434,-3.391486 2.16589,0.026347 c 0.316488,-0.00364 0.500729,1.4330231 0.484299,3.0099378 -0.03145,0.872268 1.139389,0.7477272 1.807151,0.6967403 0.343049,-0.04987 0.643579,-0.1231417 1.356805,-0.6025731 -1.017264,0.3961019 -1.558127,0.4756987 -1.516957,0.055134 0.05572,-0.7328779 -0.04396,-1.3159567 -0.219087,-1.7969851 -0.253713,-0.7092203 -0.697922,-1.2169544 -1.434959,-1.4734984 0.72432,-0.1202176 2.951231,-0.9152465 2.999961,-3.1768041 -0.002,-2.27053004 -2.18909,-3.60657036 -3.703987,-3.6417856 l -1.961538,-0.057574 z m 2.350385,0.11465963 1.934632,0.0683079 c 0.719876,0.0337847 1.858441,2.43738317 1.839181,3.56713477 -1.38e-4,1.556778 -0.830298,3.0838828 -1.483644,3.1172787 l -2.282481,-0.023908 z m 23.82351706,0.87482872 -0.001281,0.0658683 0.63099745,-0.0024396 -0.008968,9.91488815 -0.73733813,-0.00195 0.001922,0.080018 H 3.2589502 l -0.00256,-0.079042 -0.8680219,-0.00683 -0.0032,-9.97002238 z M -12.007985,5.8151 l -0.0013,0.078554 0.782821,0.00732 0.04484,3.1704613 c 0.0085,0.5270177 0.693481,0.736336 1.023689,0.7094261 0.6138159,-0.03977 1.3315032,-0.1087318 2.0275195,-0.2688403 l 0.00256,1.6686639 c -0.020654,0.932054 -2.3770675,0.446943 -2.8180275,-0.115148 l -0.231259,0.425461 c 0.866289,0.322661 2.3057805,0.406753 3.0569738,0.118075 0.1513753,-0.0768 1.2773246,-0.44547 1.2722446,-0.952407 l 0.00512,-4.8415647 -2.2728721,4.879e-4 0.00448,0.071235 0.9993462,0.00537 -0.015375,3.2363295 c -0.00478,0.3672881 -1.5362596,0.775581 -1.7072164,0.2381018 L -9.8388911,5.8151 Z m -2.550895,0.045376 c -0.966786,0.033179 -2.180547,0.5872686 -2.26006,1.910181 -0.02025,1.8218175 1.480274,1.8442855 2.255576,1.853583 0.954868,-0.0272 2.084747,-0.5927087 2.131938,-1.8799304 3.38e-4,-1.2370427 -1.225847,-1.8857405 -2.127454,-1.8838336 z m 11.5379643,0.060989 c -0.4712125,0.00647 -0.9560256,0.034247 -1.7084977,0.4318033 l -0.016015,0.5898873 c 0.4119399,-0.5169474 0.6967965,-0.705797 0.9897371,-0.8070087 0.6821191,-0.2066341 1.1249051,-0.064893 1.1249051,-0.064893 0.081957,0.4563709 0.1758924,1.348118 0.056373,1.318342 -0.6837351,-0.1819599 -1.1250794,-0.1876317 -1.7283564,-0.02098 -0.8939565,0.2414169 -1.1987391,0.8480842 -1.2030591,1.3271245 -0.00137,0.9366446 0.9368757,1.1240097 1.4599423,1.3139506 0.3011689,0.121813 1.1569843,0.09177 1.5310497,-0.4479044 0.04854,0.8377884 1.56016481,0.6935574 2.15564097,-0.1083167 L -0.46489561,9.3383226 C -1.0306495,9.940879 -1.3608897,9.9086638 -1.3553387,9.5813035 L -1.306012,7.3847174 C -1.3208724,6.2421451 -2.2272555,5.9340641 -3.0209157,5.921465 Z M -14.552474,5.944397 c 0.479881,0.00759 0.710484,0.094376 0.761681,0.4869376 0.10728,0.76313 0.211041,1.4808973 -0.0032,2.6552247 -0.0374,0.2393629 -0.279265,0.4266045 -0.782181,0.4371704 -0.559018,0.00347 -0.800538,-0.126024 -0.843678,-0.3849637 -0.260877,-1.2105032 -0.21746,-1.7216615 -0.03908,-2.704016 0.03938,-0.3082682 0.312929,-0.4819798 0.906458,-0.490353 z m 11.0818525,1.3817708 c 0.4043659,-2.6e-5 0.9189061,0.1898521 0.9173486,0.3215349 l 0.03139,1.7774685 c 0.01025,0.3220011 -1.1516955,0.7582948 -1.4804417,0.3834999 -0.055428,-0.764929 -0.071133,-1.4315458 0.057655,-2.2239092 0.028275,-0.1899402 0.2314293,-0.2585785 0.4740481,-0.2585941 z"
       transform="translate(-1.3915285e-6)" /><path
       id="path1092-7-4"
       style="display:inline;fill:none;stroke:#f2ed00;stroke-width:0.130995;stroke-opacity:1;filter:url(#filter1905)"
       d="m -33.240976,11.819355 c -0.04148,-4.3e-5 -0.07636,0.0014 -0.10387,0.0041 -0.51208,0.04379 -3.025085,0.843746 -3.756359,1.040246 -0.149443,0.03064 -0.174885,0.13414 0.0801,0.19327 0.278596,0.04759 0.286744,0.08903 0.56534,0.0739 0.303,-0.04717 0.419688,-0.148375 0.654741,-0.168465 0.388694,0.01448 1.513617,-0.321088 1.968872,-0.362768 0.146022,-0.01915 0.265372,-0.273584 0.328662,-0.376205 0.04943,-0.0092 0.335731,-0.02845 0.340031,0.111621 -0.0029,0.09096 1.586484,0.162432 1.731677,0.185002 0.155341,0.02212 -0.09722,-0.338974 0.279681,-0.417984 0.04652,-0.0098 0.09762,-0.02101 0.148312,-0.03256 -1.196023,-0.171844 -1.850848,-0.249798 -2.237185,-0.250192 z m 2.237185,0.250192 c 0.302569,0.04347 0.619405,0.09053 0.944645,0.140043 0.0948,-0.05229 0.211513,-0.09798 0.357601,-0.117305 -0.235043,0.0095 -0.688728,-0.205214 -0.702283,-0.274402 -0.12458,0.128521 -0.373706,0.200137 -0.599963,0.251664 z m 0.944645,0.140043 c -0.149949,0.08271 -0.245537,0.18193 -0.315743,0.220142 -0.115666,0.08081 0.50818,-0.04763 0.654224,0.07183 0.09989,0.06558 1.39285,0.414998 1.916678,0.415995 0.502887,-0.0018 5.155684,1.342172 7.599019,2.441712 -1.348847,-0.964457 -2.890357,-1.802399 -3.40806,-1.971973 -0.547687,-0.19635 -3.777452,-0.771413 -6.446118,-1.177706 z m 40.813528,0.375171 c -0.414545,0.0017 -1.4082247,0.111444 -2.6375651,0.272852 0.176509,0.183262 0.3025973,0.409688 0.4687053,0.439249 0.4362848,0.07721 0.6299541,0.105858 0.8097696,0.08423 0.4240876,-0.02205 1.2715292,0.05241 1.2681392,-0.292489 0.0051,-0.136879 0.336563,-0.118027 0.393775,-0.109037 0.07327,0.100281 0.211307,0.348708 0.380338,0.367419 0.526986,0.04073 1.101905,0.266848 1.551844,0.252698 0.272089,0.01963 0.407351,0.119275 0.758093,0.165365 0.322491,0.01478 0.332248,-0.02637 0.65474,-0.07286 0.29516,-0.05779 0.265485,-0.158677 0.0925,-0.188619 -0.846496,-0.19202 -3.028718,-0.8724 -3.621484,-0.91519 -0.03184,-0.0027 -0.07153,-0.0038 -0.118856,-0.0036 z m -2.6375651,0.272852 c -0.136082,-0.141289 -0.3021853,-0.256955 -0.5400187,-0.237195 -0.3570448,0.03916 -0.8250156,0.248978 -1.0970906,0.239778 0.1712877,0.01913 0.3335147,0.08234 0.4759399,0.155547 0.4030238,-0.05656 0.7922886,-0.109698 1.1611694,-0.15813 z m -1.1611694,0.15813 c -3.0074005,0.42204 -6.71034379,1.029031 -7.35355601,1.223697 -0.53341839,0.165707 -1.06636759,0.345269 -2.62774649,1.009758 1.4453303,-0.268338 7.785842,-1.49834 8.3679644,-1.49655 0.1453623,-9.74e-4 1.2140079,-0.314699 1.3296345,-0.378788 0.1690564,-0.116735 0.8909519,0.0086 0.7570597,-0.07028 C 7.3483986,13.26654 7.176236,13.12913 6.9556475,13.015743 Z"
       transform="translate(-1.3915285e-6)" /><text
       xml:space="preserve"
       transform="matrix(0.30482546,0,0,0.27646153,0.89818398,-0.52239359)"
       id="text1518"
       style="font-style:normal;font-variant:normal;font-weight:bold;font-stretch:normal;font-size:16px;font-family:'Times New Roman';-inkscape-font-specification:'Times New Roman, Bold';font-variant-ligatures:normal;font-variant-caps:normal;font-variant-numeric:normal;font-variant-east-asian:normal;text-align:center;white-space:pre;shape-inside:url(#rect1520);display:inline;fill:#f2ed00;fill-opacity:1;stroke:none;stroke-width:0;stroke-linecap:square;stroke-miterlimit:3;stroke-dasharray:none;stroke-opacity:1;paint-order:markers stroke fill"><tspan
         x="-70.801758"
         y="57.568953"
         id="tspan5855">PASTRY</tspan></text></g></svg>
