
<svg
   width="100"
   height="100"
   viewBox="0 0 120 120"
   version="1.1"
   id="svg5"
   xml:space="preserve"
   xmlns:xlink="http://www.w3.org/1999/xlink"
   xmlns="http://www.w3.org/2000/svg">
   <linearGradient
       id="linearGradient2665"><stop
         style="stop-color:#f2ed00;stop-opacity:1;"
         offset="0"
         id="stop2661" /><stop
         style="stop-color:#c7b600;stop-opacity:1;"
         offset="1"
         id="stop2663" /></linearGradient><linearGradient
       id="linearGradient2634"><stop
         style="stop-color:#f2ed00;stop-opacity:1;"
         offset="0"
         id="stop2630" /><stop
         style="stop-color:#c7b600;stop-opacity:1;"
         offset="1"
         id="stop2632" /></linearGradient><linearGradient
       id="linearGradient2626"><stop
         style="stop-color:#7c1af2;stop-opacity:1;"
         offset="0"
         id="stop2622" /><stop
         style="stop-color:#590999;stop-opacity:1;"
         offset="1"
         id="stop2624" /></linearGradient><linearGradient
       id="linearGradient2616"><stop
         style="stop-color:#7c1af2;stop-opacity:1;"
         offset="0"
         id="stop2614" /><stop
         style="stop-color:#590999;stop-opacity:1;"
         offset="1"
         id="stop2612" /></linearGradient>
         <filter
       style="color-interpolation-filters:sRGB"
       id="filter1905"
       x="-0.0051629078"
       y="-0.095407926"
       width="1.0103248"
       height="1.169403"><feGaussianBlur
         stdDeviation="0.084298622"
         id="feGaussianBlur1907" /></filter><linearGradient
       xlink:href="#linearGradient2616"
       id="linearGradient2618"
       x1="-10.4835"
       y1="-1.2133365"
       x2="-11.030559"
       y2="22.013079"
       gradientUnits="userSpaceOnUse" /><linearGradient
       xlink:href="#linearGradient2626"
       id="linearGradient2628"
       x1="-11.691554"
       y1="5.0484724"
       x2="-11.713612"
       y2="12.224504"
       gradientUnits="userSpaceOnUse" /><linearGradient
       xlink:href="#linearGradient2634"
       id="linearGradient2636"
       x1="-39.073658"
       y1="45.989082"
       x2="-39.140942"
       y2="65.997971"
       gradientUnits="userSpaceOnUse" /><linearGradient
       xlink:href="#linearGradient2665"
       id="linearGradient2667"
       x1="-38.776546"
       y1="12.753548"
       x2="18.169001"
       y2="13.768054"
       gradientUnits="userSpaceOnUse" /><filter
       style="color-interpolation-filters:sRGB"
       id="filter2691"
       x="-0.016898371"
       y="-0.26133767"
       width="1.0337967"
       height="1.5226754"><feGaussianBlur
         stdDeviation="0.38542414"
         id="feGaussianBlur2693" /></filter>
         <g
     id="g4925"
     transform="matrix(0.37499999,0,0,0.37499999,-1.2645511e-6,0)"><rect
       style="fill:none;fill-opacity:1;stroke:none;stroke-width:0;stroke-linecap:square;stroke-miterlimit:3;stroke-dasharray:none;stroke-opacity:1;paint-order:markers stroke fill"
       id="rect2152"
       width="93.75"
       height="93.75"
       x="26.988295"
       y="-8.5761087e-10"
       transform="matrix(3.4133334,0,0,3.4133334,-92.120044,0)" /><g
       id="g1954"
       transform="matrix(4.9884242,0,0,6.4373582,220.25455,124.8362)"><path
         d="M -10.892033,20.83329 C -0.02378663,19.116725 15.120323,10.299342 9.3633138,-5.3806837 1.4903006,-3.9394684 -5.7423272,-5.7534593 -11.566729,-9.9214675 c -6.204291,4.3073022 -13.293615,5.1318157 -20.998877,2.92575 -6.961139,17.5074755 11.515043,26.3898985 21.673573,27.8290075 z"
         style="display:inline;fill:#f8fcfd;fill-opacity:1;stroke:none;stroke-width:0;stroke-dasharray:none;stroke-opacity:1"
         id="path483-2" /><path
         d="m -11.056472,21.675617 c -7.108925,-2.01827 -13.728228,-4.32708 -18.411364,-9.17435 -2.06569,-2.040672 -7.884371,-7.9386508 -3.93605,-18.8951999 0.328084,-0.8642774 0.992169,-2.0449484 2.301361,-1.9757362 0.973077,0.1319387 2.046234,0.6016908 1.831308,1.9597141 6.992795,1.6527807 13.082516,-1.2286551 17.890233,-4.389944 4.2269199,3.1292465 8.9648389,6.3429988 17.7593047,5.4174886 -0.1260399,-1.0173951 0.4490144,-1.7247331 1.6258546,-1.8221908 1.3202302,-0.07781 1.7026043,0.8560894 2.0057457,1.6814615 C 13.421973,4.6666587 8.5233879,11.3214 6.48295,13.124822 c -4.8470553,4.184493 -9.3374068,5.891092 -17.539422,8.550795 z m 0.05482,-1.190701 C -5.056729,18.836824 1.8562063,16.07387 6.0357856,11.940902 7.8818477,10.156201 11.920714,3.6892811 8.8553703,-4.7552708 1.6006047,-3.4542945 -5.1695994,-4.5373247 -11.433177,-9.3465171 c -6.735194,4.8316247 -15.035031,5.4365031 -20.752721,3.1190363 -3.681455,10.8133924 1.48886,15.3380003 2.642294,16.9363048 4.439307,5.436584 12.909391,8.337956 18.541949,9.776092 z"
         style="fill:url(#linearGradient2618);fill-opacity:1;stroke-width:0.264583"
         id="path389" /><path
         id="path1092-7"
         style="display:inline;mix-blend-mode:normal;fill:#97999a;fill-opacity:1;stroke-width:0.264583;filter:url(#filter2691)"
         d="m -31.793636,11.982424 c -1.673789,0.0025 -3.43602,0.138669 -4.674133,0.342614 -0.588593,0.129033 -2.599783,0.893222 -3.744991,1.472262 -0.234026,0.09029 0.181599,0.281425 0.495577,0.270784 0.763421,-0.03047 0.331992,0.561831 0.938961,0.517281 0.374946,-0.09633 0.941379,-0.464809 1.309481,-0.523999 1.319868,0.05689 1.310895,0.345532 1.796272,0.251148 0.143341,-0.05643 0.319449,-0.248475 0.418579,-0.550871 0.0774,-0.226204 0.273603,-0.254217 0.280603,0.04341 -0.0046,0.168492 0.121532,0.629349 0.235128,0.65319 0.243268,0.06522 0.894718,-0.04936 1.442289,-0.253731 0.426425,-0.172089 0.757636,-0.489322 1.152901,-0.981335 0.191907,0.388793 0.305921,0.535284 0.503329,0.692464 -0.590639,0.147041 -0.643748,0.424422 -0.823206,0.608231 -0.181138,0.2377 0.514515,-0.28111 0.600997,0.255799 0.04264,0.235936 0.259794,-0.163515 0.584461,-0.345716 1.100448,-0.645449 2.258282,-0.628056 4.329451,0.128158 -1.549738,-1.158773 -1.900891,-1.651762 -2.675806,-2.493905 -0.666716,-0.06029 -1.40908,-0.08693 -2.169893,-0.08578 z m 38.5392486,0.721919 c -0.8602381,-0.002 -1.7194121,0.03152 -2.503723,0.10387 -1.0211488,0.922599 -1.3853004,1.164517 -2.9347045,2.413806 2.0303986,-0.756214 3.2460145,-0.763788 4.3248004,-0.118339 0.3182758,0.182201 0.5312907,0.581651 0.5730917,0.345715 0.08478,-0.536908 0.7666845,-0.0181 0.5891113,-0.255798 -0.1759253,-0.18381 -0.228174,-0.461191 -0.8071859,-0.608232 0.1935219,-0.157179 0.3053807,-0.30367 0.4935099,-0.692464 0.3874849,0.492014 0.712133,0.809247 1.1301636,0.981336 0.5367931,0.204366 1.1753881,0.318951 1.4138671,0.253731 0.11136,-0.02384 0.234977,-0.484698 0.230477,-0.65319 0.0069,-0.297626 0.199555,-0.269612 0.275435,-0.04341 0.09718,0.302395 0.269792,0.49444 0.410311,0.55087 0.4758238,0.09438 0.4672448,-0.194257 1.7611328,-0.251147 0.360855,0.05919 0.91556,0.427669 1.283126,0.523999 0.595021,0.04455 0.172479,-0.547751 0.920874,-0.517281 0.307795,0.01064 0.715177,-0.180495 0.485758,-0.270785 -1.122666,-0.579039 -3.094604,-1.343228 -3.67161,-1.472261 C 9.6166452,12.80936 8.1793432,12.707607 6.7456126,12.704343 Z"
         transform="matrix(1.014282,0,0,1.014282,1.342848,-0.36288275)" /><path
         id="path1092"
         style="fill:#f8fcfd;fill-opacity:1;stroke-width:0.264583"
         d="m -30.666861,11.401888 c -1.673789,0.0025 -3.43602,0.138669 -4.674133,0.342614 -0.588593,0.129033 -2.599783,0.893222 -3.744991,1.472262 -0.234026,0.09029 0.181599,0.281425 0.495577,0.270784 0.763421,-0.03047 0.331992,0.561831 0.938961,0.517281 0.374946,-0.09633 0.941379,-0.464809 1.309481,-0.523999 1.319868,0.05689 1.310895,0.345532 1.796272,0.251148 0.143341,-0.05643 0.319449,-0.248475 0.418579,-0.550871 0.0774,-0.226204 0.273603,-0.254217 0.280603,0.04341 -0.0046,0.168492 0.121532,0.629349 0.235128,0.65319 0.243268,0.06522 0.894718,-0.04936 1.442289,-0.253731 0.426425,-0.172089 0.757636,-0.489322 1.152901,-0.981335 0.191907,0.388793 0.305921,0.535284 0.503329,0.692464 -0.590639,0.147041 -0.643748,0.424422 -0.823206,0.608231 -0.181138,0.2377 0.514515,-0.28111 0.600997,0.255799 0.04264,0.235936 0.259794,-0.163515 0.584461,-0.345716 1.100448,-0.645449 2.258282,-0.628056 4.329451,0.128158 -1.549738,-1.158773 -1.900891,-1.651762 -2.675806,-2.493905 -0.666716,-0.06029 -1.40908,-0.08693 -2.169893,-0.08578 z m 38.5392484,0.721919 c -0.8602381,-0.002 -1.7194121,0.03152 -2.503723,0.10387 -1.0211488,0.922599 -1.3853004,1.164517 -2.9347045,2.413806 2.0303986,-0.756214 3.2460145,-0.763788 4.3248004,-0.118339 0.3182758,0.182201 0.5312907,0.581651 0.5730917,0.345715 0.08478,-0.536908 0.7666845,-0.0181 0.5891113,-0.255798 -0.1759253,-0.18381 -0.228174,-0.461191 -0.8071859,-0.608232 0.1935219,-0.157179 0.3053807,-0.30367 0.4935099,-0.692464 0.3874849,0.492014 0.712133,0.809247 1.1301636,0.981336 0.5367927,0.204366 1.1753878,0.318951 1.4138671,0.253731 0.11136,-0.02384 0.234977,-0.484698 0.230477,-0.65319 0.0069,-0.297626 0.199555,-0.269612 0.275435,-0.04341 0.09718,0.302395 0.269792,0.49444 0.410311,0.55087 0.475824,0.09438 0.467245,-0.194257 1.761133,-0.251147 0.360855,0.05919 0.91556,0.427669 1.283126,0.523999 0.595021,0.04455 0.172479,-0.547751 0.920874,-0.517281 0.307795,0.01064 0.715177,-0.180495 0.485758,-0.270785 -1.122666,-0.579039 -3.094604,-1.343228 -3.67161,-1.472261 -1.103402,-0.185403 -2.5407044,-0.287156 -3.9744346,-0.29042 z" /><path
         id="path1092-7-4"
         style="display:inline;fill:none;stroke:url(#linearGradient2667);stroke-width:0.130995;stroke-opacity:1;filter:url(#filter1905)"
         d="m -33.240976,11.819355 c -0.04148,-4.3e-5 -0.07636,0.0014 -0.10387,0.0041 -0.51208,0.04379 -3.025085,0.843746 -3.756359,1.040246 -0.149443,0.03064 -0.174885,0.13414 0.0801,0.19327 0.278596,0.04759 0.286744,0.08903 0.56534,0.0739 0.303,-0.04717 0.419688,-0.148375 0.654741,-0.168465 0.388694,0.01448 1.513617,-0.321088 1.968872,-0.362768 0.146022,-0.01915 0.265372,-0.273584 0.328662,-0.376205 0.04943,-0.0092 0.335731,-0.02845 0.340031,0.111621 -0.0029,0.09096 1.586484,0.162432 1.731677,0.185002 0.155341,0.02212 -0.09722,-0.338974 0.279681,-0.417984 0.04652,-0.0098 0.09762,-0.02101 0.148312,-0.03256 -1.196023,-0.171844 -1.850848,-0.249798 -2.237185,-0.250192 z m 2.237185,0.250192 c 0.302569,0.04347 0.619405,0.09053 0.944645,0.140043 0.0948,-0.05229 0.211513,-0.09798 0.357601,-0.117305 -0.235043,0.0095 -0.688728,-0.205214 -0.702283,-0.274402 -0.12458,0.128521 -0.373706,0.200137 -0.599963,0.251664 z m 0.944645,0.140043 c -0.149949,0.08271 -0.245537,0.18193 -0.315743,0.220142 -0.115666,0.08081 0.50818,-0.04763 0.654224,0.07183 0.09989,0.06558 1.39285,0.414998 1.916678,0.415995 0.502887,-0.0018 5.155684,1.342172 7.599019,2.441712 -1.348847,-0.964457 -2.890357,-1.802399 -3.40806,-1.971973 -0.547687,-0.19635 -3.777452,-0.771413 -6.446118,-1.177706 z m 40.813528,0.375171 c -0.414545,0.0017 -1.4082247,0.111444 -2.6375651,0.272852 0.176509,0.183262 0.3025973,0.409688 0.4687053,0.439249 0.4362848,0.07721 0.6299541,0.105858 0.8097696,0.08423 0.4240876,-0.02205 1.2715292,0.05241 1.2681392,-0.292489 0.0051,-0.136879 0.336563,-0.118027 0.393775,-0.109037 0.07327,0.100281 0.211307,0.348708 0.380338,0.367419 0.526986,0.04073 1.101905,0.266848 1.551844,0.252698 0.272089,0.01963 0.407351,0.119275 0.758093,0.165365 0.322491,0.01478 0.332248,-0.02637 0.65474,-0.07286 0.29516,-0.05779 0.265485,-0.158677 0.0925,-0.188619 -0.846496,-0.19202 -3.028718,-0.8724 -3.621484,-0.91519 -0.03184,-0.0027 -0.07153,-0.0038 -0.118856,-0.0036 z m -2.6375651,0.272852 c -0.136082,-0.141289 -0.3021853,-0.256955 -0.5400187,-0.237195 -0.3570448,0.03916 -0.8250156,0.248978 -1.0970906,0.239778 0.1712877,0.01913 0.3335147,0.08234 0.4759399,0.155547 0.4030238,-0.05656 0.7922886,-0.109698 1.1611694,-0.15813 z m -1.1611694,0.15813 c -3.0074005,0.42204 -6.71034379,1.029031 -7.35355601,1.223697 -0.53341839,0.165707 -1.06636759,0.345269 -2.62774649,1.009758 1.4453303,-0.268338 7.785842,-1.49834 8.3679644,-1.49655 0.1453623,-9.74e-4 1.2140079,-0.314699 1.3296345,-0.378788 0.1690564,-0.116735 0.8909519,0.0086 0.7570597,-0.07028 C 7.3483986,13.26654 7.176236,13.12913 6.9556475,13.015743 Z" /><path
         d="M -11.065196,19.033686 C -3.114636,17.638954 11.507579,10.69222 7.3999604,-3.5395606 -0.11099214,-2.581093 -5.5936565,-3.691076 -11.418059,-7.8590845 -17.62235,-3.5517824 -23.17321,-3.1738314 -30.55664,-4.4144001 -34.621289,11.282768 -18.888768,17.648611 -11.065196,19.033686 Z"
         style="fill:none;stroke:#6f687a;stroke-width:0.264583;stroke-dasharray:none;stroke-opacity:1"
         id="path483" /><path
         id="path1160-1"
         style="fill:url(#linearGradient2628);fill-opacity:1;stroke-width:0.264583"
         d="m -25.907462,-1.0795206 0.0052,0.10800371 0.790649,0.005684 -0.0016,6.71845269 -1.176672,-0.020154 v 0.1007691 l 1.176672,0.040308 -0.001,3.3992756 -1.080038,0.013436 -0.0057,0.1178222 3.818371,-0.029972 0.01654,-0.1069702 -1.201994,0.00568 0.02429,-3.3915242 2.165759,0.026355 c 0.316488,-0.00364 0.500638,1.4332359 0.484208,3.0101521 -0.03145,0.8722689 1.139879,0.7475852 1.807642,0.6965983 0.343049,-0.04987 0.64328,-0.1231154 1.356506,-0.6025472 -1.017265,0.3961023 -1.557873,0.4758589 -1.516703,0.055294 0.05572,-0.7328787 -0.04398,-1.3162774 -0.219108,-1.7973063 -0.253713,-0.709221 -0.698018,-1.2167507 -1.435055,-1.473295 0.72432,-0.1202177 2.951087,-0.9149903 2.999817,-3.1765502 -0.002,-2.2705323 -2.189268,-3.60693953 -3.704167,-3.6421548 l -1.96112,-0.057361 z m 2.350761,0.11472164 1.934249,0.0682129 c 0.719877,0.0337847 1.858941,2.43747116 1.839681,3.56722396 -1.38e-4,1.5567795 -0.830283,3.0837263 -1.48363,3.1171223 l -2.282548,-0.023771 z m 23.82335138,0.87488197 -0.00155,0.06562907 0.63148598,-0.0025838 -0.009302,9.91515672 -0.7369059,-0.00207 0.00155,0.080099 H 3.2587157 l -0.00258,-0.079065 -0.8676473,-0.00672 -0.0031,-9.96993371 z M -12.008052,5.8151487 l -0.0015,0.078548 0.782897,0.00723 0.04496,3.170349 c 0.0085,0.5270183 0.693502,0.7364274 1.02371,0.7095174 0.6138167,-0.03977 1.3317662,-0.1086087 2.0277832,-0.2687174 l 0.00236,1.6688333 c -0.020654,0.932055 -2.3772192,0.446508 -2.8181802,-0.115584 l -0.231132,0.425603 c 0.86629,0.322662 2.305574,0.406838 3.0567681,0.118159 0.1513754,-0.0768 1.2773537,-0.445459 1.2722737,-0.952397 l 0.00517,-4.8415642 -2.2727294,5.168e-4 0.00465,0.071314 0.9994222,0.00517 -0.015462,3.2364696 c -0.00478,0.3672884 -1.5364031,0.775372 -1.7073601,0.2378922 l -0.00472,-3.5513597 z m 8.9871915,0.1060835 c -0.471213,0.00647 -0.9563168,0.034517 -1.7087896,0.4320738 l -0.01609,0.5899306 c 0.4119403,-0.516948 0.6969535,-0.7059288 0.9898944,-0.8071406 0.6821198,-0.2066343 1.1253167,-0.06483 1.1253167,-0.06483 0.081957,0.4563714 0.1758342,1.3482689 0.056315,1.3184929 C -3.2579498,7.2077988 -3.6993021,7.2018913 -4.3025797,7.3685429 -5.1965371,7.60996 -5.501287,8.216553 -5.505607,8.6955937 c -0.00137,0.9366456 0.9369303,1.1241461 1.4599974,1.3140873 0.3011692,0.121813 1.1568822,0.09156 1.5309479,-0.4481137 0.04854,0.8377887 1.56009803,0.6935837 2.15557479,-0.1082906 L -0.4649362,9.3385574 c -0.5657545,0.602557 -0.8960525,0.569864 -0.8905015,0.2425033 L -1.305735,7.3848351 C -1.3205954,6.2422617 -2.2271995,5.9338312 -3.0208605,5.9212322 Z M -16.819212,7.7704963 c -0.02025,1.8218194 1.480615,1.8444251 2.255917,1.8537226 0.954869,-0.0272 2.084933,-0.5926664 2.132124,-1.8798893 3.38e-4,-1.237044 -1.226143,-1.8856738 -2.127751,-1.8837669 -0.966787,0.033179 -2.180777,0.5870199 -2.26029,1.9099336 z m 2.266903,-1.8261888 c 0.479882,0.00759 0.710223,0.094348 0.76142,0.4869097 0.10728,0.7631308 0.211044,1.4811153 -0.0032,2.6554439 -0.0374,0.2393631 -0.278876,0.426506 -0.781792,0.4370719 -0.559019,0.00347 -0.800688,-0.1262013 -0.843828,-0.3851412 -0.260877,-1.2105044 -0.217693,-1.7213694 -0.03931,-2.7037249 0.03938,-0.3082685 0.31318,-0.4821862 0.90671,-0.4905594 z m 11.9989062,1.7032211 0.031411,1.7774801 c 0.01025,0.3220014 -1.1518535,0.7582423 -1.4806001,0.3834474 -0.055428,-0.7649298 -0.070658,-1.4315415 0.05813,-2.2239057 0.0754,-0.5065076 1.3935512,-0.1477145 1.3910591,0.062978 z" /><path
         d="m -11.491871,2.8701508 c 1.050104,-0.2776122 3.0026494,-1.6603135 2.4601179,-4.4930552 -0.9920419,0.1907766 -1.7161879,-0.030158 -2.4854709,-0.8597724 -0.819457,0.8573398 -1.552611,0.9325684 -2.52781,0.6856415 -0.536856,3.1244171 1.519831,4.3914957 2.553163,4.6671861 z"
         style="fill:none;stroke:#5f3c99;stroke-width:0.132292;stroke-dasharray:none;stroke-opacity:1"
         id="path483-3" /><text
         xml:space="preserve"
         transform="matrix(0.30482546,0,0,0.27646153,0.89818398,-0.52239359)"
         id="text1518"
         style="font-style:normal;font-variant:normal;font-weight:bold;font-stretch:normal;font-size:16px;font-family:'Times New Roman';-inkscape-font-specification:'Times New Roman, Bold';font-variant-ligatures:normal;font-variant-caps:normal;font-variant-numeric:normal;font-variant-east-asian:normal;text-align:center;white-space:pre;shape-inside:url(#rect1520);display:inline;fill:url(#linearGradient2636);fill-opacity:1;stroke:none;stroke-width:0;stroke-linecap:square;stroke-miterlimit:3;stroke-dasharray:none;stroke-opacity:1;paint-order:markers stroke fill"><tspan
           x="-70.801758"
           y="57.568953"
           id="tspan5163">PASTRY</tspan></text></g></g></svg>
